<?xml version="1.0" encoding="utf-8"?>
<!-- Generator: Adobe Illustrator 16.0.0, SVG Export Plug-In . SVG Version: 6.00 Build 0)  -->
<!DOCTYPE svg PUBLIC "-//W3C//DTD SVG 1.1//EN" "http://www.w3.org/Graphics/SVG/1.1/DTD/svg11.dtd">
<svg version="1.1" id="图层_1" xmlns="http://www.w3.org/2000/svg" xmlns:xlink="http://www.w3.org/1999/xlink" x="0px" y="0px"
	 width="234.375px" height="200px" viewBox="0 0 234.375 200" enable-background="new 0 0 234.375 200" xml:space="preserve">
<path fill="#BEC5D1" d="M220.576,92.848c-6.004-8.021-14.449-14.147-23.891-17.355c0.039-0.572,0.071-1.16,0.071-1.768
	c0-15.356-5.983-29.794-16.849-40.653c-10.864-10.858-25.311-16.838-40.674-16.838c-19.021,0-36.665,9.324-47.428,25.001
	c-2.83-0.65-5.651-0.979-8.401-0.979c-18.658,0-34.534,13.671-37.388,31.985c-10.664,2.645-20.314,8.773-27.277,17.347
	c-7.31,9.002-11.336,20.357-11.336,31.975c0,13.582,5.292,26.352,14.901,35.955c9.366,9.36,21.74,14.623,34.943,14.883v0.011h0.44
	v-12.763l-0.492-0.015c-9.963-0.278-19.284-4.36-26.247-11.493c-6.979-7.147-10.821-16.586-10.821-26.576
	c0-9.953,3.818-19.365,10.75-26.503c6.914-7.119,16.183-11.224,26.1-11.559l1.81-0.061l-0.319-2.253
	c-0.153-1.061-0.298-2.063-0.298-3.079c0-13.906,11.32-25.22,25.235-25.22c4.411,0,8.681,1.193,12.692,3.546l1.573,0.923
	l0.738-1.667c7.157-16.157,23.182-26.596,40.825-26.596c24.623,0,44.654,20.021,44.654,44.629c0,3.59-0.481,7.302-1.434,11.033
	l-0.473,1.856l1.908,0.167c9.053,0.792,17.444,4.918,23.627,11.619c6.219,6.742,9.645,15.509,9.645,24.686
	c0,19.547-15.467,35.545-34.809,36.427v12.86c12.672-0.417,24.525-5.533,33.533-14.537c9.406-9.401,14.588-21.901,14.588-35.196
	C230.477,111.801,227.053,101.5,220.576,92.848z"/>
<g>
	<g transform="scale(0.1953125, 0.1953125)">
		<path fill="#BEC5D1" d="M916.258,919.908l-105.445-105.45c45.015-51.62,72.295-119.08,72.295-192.909
			c0-162.14-131.44-293.577-293.584-293.577c-162.142,0-293.582,131.437-293.582,293.577c0,162.15,131.44,293.589,293.582,293.589
			c74.19,0,141.96-27.53,193.64-72.91l105.445,105.38c3.795,3.8,8.81,5.75,13.825,5.75s10.03-1.89,13.825-5.75
			C923.903,939.968,923.903,927.548,916.258,919.908z M589.524,875.988c-34.372,0-67.707-6.73-99.022-20
			c-30.275-12.78-57.492-31.19-80.917-54.56c-23.427-23.36-41.715-50.58-54.557-80.91c-13.212-31.32-19.94-64.59-19.94-98.97
			c0-34.37,6.728-67.7,20-99.02c12.782-30.272,31.192-57.492,54.557-80.917c23.365-23.425,50.582-41.712,80.917-54.557
			c31.317-13.272,64.65-20,99.025-20c34.372,0,67.707,6.728,99.022,20c30.275,12.782,57.49,31.192,80.92,54.557
			c23.425,23.365,41.71,50.58,54.555,80.917c13.15,31.32,19.88,64.65,19.88,99.02c0,34.38-6.73,67.71-20,99.03
			c-12.785,30.27-31.195,57.49-54.56,80.92c-23.365,23.42-50.58,41.71-80.92,54.55C657.233,869.258,623.898,875.988,589.524,875.988
			z M716.133,480.876c-23.305,0-42.205,18.9-42.205,42.202c0,8.08,2.265,15.6,6.18,22.02l-45.935,76.52
			c-0.795-0.07-1.65-0.07-2.445-0.07c-4.405,0-8.625,0.68-12.6,1.9l-31.5-31.5c1.223-3.97,1.895-8.19,1.895-12.6
			c0-23.3-18.9-42.2-42.202-42.2c-23.302,0-42.202,18.9-42.202,42.2c0,8.08,2.262,15.6,6.177,22.02l-45.932,76.52
			c-0.795-0.07-1.653-0.07-2.448-0.07c-23.302,0-42.202,18.9-42.202,42.21c0,23.3,18.9,42.2,42.202,42.2
			c23.302,0,42.202-18.9,42.202-42.2c0-8.08-2.263-15.6-6.177-22.02l45.932-76.58c0.797,0.06,1.652,0.06,2.448,0.06
			c4.405,0,8.625-0.67,12.6-1.89l31.5,31.5c-1.225,3.97-1.897,8.19-1.897,12.6c0,23.3,18.9,42.2,42.205,42.2
			c23.3,0,42.2-18.9,42.2-42.2c0-8.08-2.265-15.6-6.175-22.02l45.93-76.52c0.795,0.06,1.655,0.06,2.45,0.06
			c23.3,0,42.2-18.9,42.2-42.2C758.333,499.716,739.433,480.876,716.133,480.876z M462.916,723.078c-1.713,0-3.057-1.34-3.057-3.05
			c0-1.72,1.345-3.06,3.057-3.06s3.057,1.34,3.057,3.06C465.974,721.738,464.629,723.078,462.916,723.078z M547.321,582.409
			c-1.713,0-3.057-1.35-3.057-3.06s1.345-3.06,3.057-3.06s3.057,1.35,3.057,3.06S549.034,582.409,547.321,582.409z M631.728,666.808
			c-1.715,0-3.06-1.34-3.06-3.05c0-1.72,1.345-3.06,3.06-3.06c1.71,0,3.055,1.34,3.055,3.06
			C634.783,665.468,633.438,666.808,631.728,666.808z M716.133,526.139c-1.715,0-3.06-1.35-3.06-3.06s1.345-3.06,3.06-3.06
			c1.71,0,3.055,1.35,3.055,3.06S717.843,526.139,716.133,526.139z"/>
	</g>
</g>
</svg>
