<?xml version="1.0" encoding="utf-8"?>
<!-- Generator: Adobe Illustrator 16.0.0, SVG Export Plug-In . SVG Version: 6.00 Build 0)  -->
<!DOCTYPE svg PUBLIC "-//W3C//DTD SVG 1.1//EN" "http://www.w3.org/Graphics/SVG/1.1/DTD/svg11.dtd">
<svg version="1.1" id="图层_1" xmlns="http://www.w3.org/2000/svg" xmlns:xlink="http://www.w3.org/1999/xlink" x="0px" y="0px"
	 width="234.375px" height="200px" viewBox="0 0 234.375 200" enable-background="new 0 0 234.375 200" xml:space="preserve">
<path fill="#BEC5D1" d="M220.576,92.848c-6.004-8.021-14.449-14.147-23.891-17.355c0.039-0.572,0.071-1.16,0.071-1.768
	c0-15.356-5.983-29.794-16.849-40.653c-10.864-10.858-25.311-16.838-40.674-16.838c-19.021,0-36.665,9.324-47.428,25.001
	c-2.83-0.65-5.651-0.979-8.401-0.979c-18.658,0-34.534,13.671-37.388,31.985c-10.664,2.645-20.314,8.773-27.277,17.347
	c-7.31,9.002-11.336,20.357-11.336,31.975c0,13.582,5.292,26.352,14.901,35.955c9.366,9.36,21.74,14.623,34.943,14.883v0.011h0.44
	v-12.763l-0.492-0.015c-9.963-0.278-19.284-4.36-26.247-11.493c-6.979-7.147-10.821-16.586-10.821-26.576
	c0-9.953,3.818-19.365,10.75-26.503c6.914-7.119,16.183-11.224,26.1-11.559l1.81-0.061l-0.319-2.253
	c-0.153-1.061-0.298-2.063-0.298-3.079c0-13.906,11.32-25.22,25.235-25.22c4.411,0,8.681,1.193,12.692,3.546l1.573,0.923
	l0.738-1.667c7.157-16.157,23.182-26.596,40.825-26.596c24.623,0,44.654,20.021,44.654,44.629c0,3.59-0.481,7.302-1.434,11.033
	l-0.473,1.856l1.908,0.167c9.053,0.792,17.444,4.918,23.627,11.619c6.219,6.742,9.645,15.509,9.645,24.686
	c0,19.547-15.467,35.545-34.809,36.427v12.86c12.672-0.417,24.525-5.533,33.533-14.537c9.406-9.401,14.588-21.901,14.588-35.196
	C230.477,111.801,227.053,101.5,220.576,92.848z"/>
<g>
	<g transform="scale(0.1953125, 0.1953125)">
		<path fill="#BEC5D1" d="M801.443,764.503c-3.925,0-7.735-1.075-11.015-3.125c-4.67-2.89-7.87-7.36-9.035-12.6
			c-1.14-5.135-0.165-10.41,2.74-14.835c21.185-32.325,32.385-69.765,32.385-108.29c0-111.27-93.105-201.79-207.544-201.79
			c-114.455,0-207.564,90.52-207.564,201.79c0,10.98-9.21,19.91-20.53,19.91s-20.527-8.93-20.527-19.9
			c0-133.222,111.527-241.599,248.617-241.599c137.08,0,248.599,108.377,248.599,241.599c0,46.08-13.405,90.895-38.77,129.61
			C815.018,761.058,808.528,764.503,801.443,764.503z M612.648,753.303c-8.185,0-14.84-6.44-14.84-14.36v-50.89h-43.897
			c-8.182,0-14.838-6.435-14.838-14.365c0-7.92,6.655-14.37,14.838-14.37h43.897v-36.5h-43.897c-8.182,0-14.838-6.455-14.838-14.375
			c0-7.92,6.655-14.365,14.838-14.365h43.897v-18.145l0.015-0.055c0.06-0.185,0.155-0.495,0.17-0.875l0.06-0.89l-55-53.455
			c-2.787-2.71-4.322-6.31-4.325-10.125c-0.005-3.835,1.532-7.445,4.325-10.157c2.805-2.733,6.54-4.225,10.51-4.225
			c3.973,0,7.708,1.492,10.512,4.225l48.827,47.462l48.325-46.977c2.795-2.72,6.525-4.23,10.505-4.23c3.97,0,7.71,1.51,10.52,4.23
			c2.785,2.715,4.315,6.317,4.315,10.143c0,3.825-1.53,7.425-4.315,10.14c-0.015,0.005-13.56,13.285-27.105,26.575
			c-6.77,6.65-13.54,13.31-18.62,18.31c-2.545,2.505-4.66,4.59-6.14,6.065c-2.905,2.885-2.905,2.885-2.905,3.73v18.255h43.9
			c8.18,0,14.84,6.445,14.84,14.365c0,7.92-6.66,14.375-14.84,14.375h-43.9v36.5h43.9c8.18,0,14.84,6.45,14.84,14.37
			c0,7.93-6.66,14.365-14.84,14.365h-43.9v50.89C627.483,746.863,620.828,753.303,612.648,753.303z M646.188,974.263v-0.275
			c-0.51,0-51.455-0.09-75.022-0.215c-7.1-0.05-24.045-2.445-35.26-5.49c-26.512-7.205-66.622-21.475-107.11-48.595
			c-49.14-32.925-85.817-76.01-109.012-128.09c-5.97-13.395-11.487-57.365,4.948-81.69c7.79-11.51,19.625-17.85,33.325-17.85
			c18.037,0,37.832,10.705,62.285,33.685c13.32,12.53,23.065,24.99,32.487,37.03l0.105,0.13
			c30.895,39.58,57.572,73.745,211.814,83.15l4.07,0.255l-2.37-3.32c-8.73-12.19-14.72-20.92-17.795-25.94
			c-7.43-12.21-10.31-32.485-1.425-47.62c6.82-11.66,19.475-18.35,34.715-18.35c18.52,0,42.275,9.585,72.605,29.295l0.48,0.315
			h0.105c0.065,0.03,0.13,0.07,0.2,0.105c17.19,9.045,77.535,39.4,132.37,50.34c9.49,1.89,16.38,10.09,16.38,19.49v103.73
			c0,10.98-9.205,19.9-20.525,19.9H646.188V974.263z M356.184,759.238c-0.282,1.26-1.715,8.675,1.333,16.685l0.037,0.095
			c43.802,98.33,134.945,137.82,185.377,152.61l0.078,0.025c22.995,5.735,64.55,5.805,66.31,5.805h253.714v-68.06l-1.46-0.37
			c-50.38-12.965-100.085-37.07-119.12-46.83c-5.125-2.625-8.42-4.405-9.4-4.94c-11.745-7.595-27.21-13.99-28.24-14.41
			c-3.185-1.44-5.865-2.17-7.955-2.17c-3.035,0-4.305,1.55-4.79,2.465c-1.345,2.56-0.26,6.425,3.225,11.495
			c0.21,0.32,21.81,32.02,31.22,44.59c4.595,6.165,5.19,14.19,1.535,20.92c-2.65,4.865-7.825,10.67-17.385,10.67
			c-0.425,0-0.86-0.01-1.3-0.035c-214.77-5.605-250.904-51.85-289.164-100.815c-8.902-11.42-17.295-22.175-28.44-32.65
			c-11.38-10.695-11.487-10.695-12.497-10.695h-1.24c-2.368-1.065-4.735-1.61-7.005-1.61
			C362.884,742.013,356.939,748.928,356.184,759.238z"/>
	</g>
</g>
</svg>
