<?xml version="1.0" encoding="utf-8"?>
<!-- Generator: Adobe Illustrator 16.0.0, SVG Export Plug-In . SVG Version: 6.00 Build 0)  -->
<!DOCTYPE svg PUBLIC "-//W3C//DTD SVG 1.1//EN" "http://www.w3.org/Graphics/SVG/1.1/DTD/svg11.dtd">
<svg version="1.1" id="图层_1" xmlns="http://www.w3.org/2000/svg" xmlns:xlink="http://www.w3.org/1999/xlink" x="0px" y="0px"
	 width="234.375px" height="200px" viewBox="0 0 234.375 200" enable-background="new 0 0 234.375 200" xml:space="preserve">
<path fill="#BEC5D1" d="M220.576,92.848c-6.004-8.021-14.449-14.147-23.891-17.355c0.039-0.572,0.071-1.16,0.071-1.768
	c0-15.356-5.983-29.794-16.849-40.653c-10.864-10.858-25.311-16.838-40.674-16.838c-19.021,0-36.665,9.324-47.428,25.001
	c-2.83-0.65-5.651-0.979-8.401-0.979c-18.658,0-34.534,13.671-37.388,31.985c-10.664,2.645-20.314,8.773-27.277,17.347
	c-7.31,9.002-11.336,20.357-11.336,31.975c0,13.582,5.292,26.352,14.901,35.955c9.366,9.36,21.74,14.623,34.943,14.883v0.011h0.44
	v-12.763l-0.492-0.015c-9.963-0.278-19.284-4.36-26.247-11.493c-6.979-7.147-10.821-16.586-10.821-26.576
	c0-9.953,3.818-19.365,10.75-26.503c6.914-7.119,16.183-11.224,26.1-11.559l1.81-0.061l-0.319-2.253
	c-0.153-1.061-0.298-2.063-0.298-3.079c0-13.906,11.32-25.22,25.235-25.22c4.411,0,8.681,1.193,12.692,3.546l1.573,0.923
	l0.738-1.667c7.157-16.157,23.182-26.596,40.825-26.596c24.623,0,44.654,20.021,44.654,44.629c0,3.59-0.481,7.302-1.434,11.033
	l-0.473,1.856l1.908,0.167c9.053,0.792,17.444,4.918,23.627,11.619c6.219,6.742,9.645,15.509,9.645,24.686
	c0,19.547-15.467,35.545-34.809,36.427v12.86c12.672-0.417,24.525-5.533,33.533-14.537c9.406-9.401,14.588-21.901,14.588-35.196
	C230.477,111.801,227.053,101.5,220.576,92.848z"/>
<g>
	<g transform="scale(0.1953125, 0.1953125)">
		<path fill="#BEC5D1" d="M822.948,864.708c11.25,0,20.4-9.34,20.4-20.825c0-11.48-9.15-20.82-20.4-20.82
			c-11.25,0-20.395,9.34-20.395,20.82C802.553,855.368,811.698,864.708,822.948,864.708z M913.383,528.699H732.518
			c-16.39,0-29.715,13.62-29.715,30.355v310.544c0,16.735,13.325,30.35,29.715,30.35h180.865c16.385,0,29.715-13.615,29.715-30.35
			V559.054C943.098,542.319,929.768,528.699,913.383,528.699z M920.458,869.598c0,4.015-3.175,7.295-7.075,7.295H732.518
			c-3.905,0-7.08-3.275-7.08-7.295v-55.335h195.019V869.598z M920.458,789.588H725.438V559.054c0-4.02,3.175-7.29,7.085-7.29
			h180.859c3.9,0,7.075,3.27,7.075,7.29V789.588L920.458,789.588z M314.052,458.379h538.126v60.95h29.495v-88.082H286.847v397.886
			h215.159v43.42h-80.147v27.13h268.934v-27.13h-24.38v-43.42h24.38v-27.13H314.052V458.379z"/>
	</g>
</g>
</svg>
