<?xml version="1.0" encoding="utf-8"?>
<!-- Generator: Adobe Illustrator 16.0.0, SVG Export Plug-In . SVG Version: 6.00 Build 0)  -->
<!DOCTYPE svg PUBLIC "-//W3C//DTD SVG 1.1//EN" "http://www.w3.org/Graphics/SVG/1.1/DTD/svg11.dtd">
<svg version="1.1" id="图层_1" xmlns="http://www.w3.org/2000/svg" xmlns:xlink="http://www.w3.org/1999/xlink" x="0px" y="0px"
	 width="200px" height="200px" viewBox="0 0 200 200" enable-background="new 0 0 200 200" xml:space="preserve">
<path fill="#E6E6E6" d="M65.781,147.656h-9.766c-16.563,0-30-13.438-30-30s13.438-30,30-30c0.156,0,0.469,0,0.469,0l4.766,0.078
	c0.273,0.02,1.953,0.156,3.672-1.719s1.094-3.535,1.094-5.645C66.016,55.313,86.309,35,111.328,35
	c11.758,0,22.48,4.492,30.527,11.836c0.918,0.84,0.723,0.801,1.582,1.719c0.977,1.387,2.598,2.402,4.453,2.402c2.754,0,5-2.246,5-5
	c0-1.719-0.938-3.145-2.109-4.316c-0.84-0.918-0.684-0.684-1.602-1.543C139.336,30.723,125.996,25,111.328,25
	C81.699,25,57.5,48.34,56.074,77.656c-22.148,0-40.059,17.91-40.059,40s17.91,40,40,40h9.766c2.754,0,5-2.246,5-5
	S68.535,147.656,65.781,147.656L65.781,147.656z"/>
<g>
	<g transform="scale(0.1953125, 0.1953125)">
		<path fill="#E6E6E6" d="M636.103,498.416c23.255,0,42.175-18.917,42.175-42.175v-47.99c0-23.257-18.92-42.175-42.175-42.175
			h-146.17c-23.26,0-42.175,18.917-42.175,42.175v47.99c0,23.257,18.915,42.175,42.175,42.175H636.103z M467.211,456.241v-47.99
			c0-12.517,10.203-22.72,22.723-22.72h146.17c12.515,0,22.72,10.202,22.72,22.72v47.99c0,12.515-10.205,22.72-22.72,22.72h-146.17
			C477.414,478.961,467.211,468.756,467.211,456.241z M474.549,526.349h176.94v19.46h-176.94V526.349z M867.243,597.264h-173.8
			c-26.63,0-48.31,21.655-48.31,48.29v57.07c0,26.645,21.68,48.315,48.31,48.315h173.8c26.64,0,48.32-21.67,48.32-48.315v-57.07
			C915.563,618.919,893.883,597.264,867.243,597.264z M896.113,702.618c0,15.91-12.97,28.87-28.87,28.87h-173.8
			c-15.915,0-28.855-12.96-28.855-28.87v-57.065c0-15.91,12.94-28.835,28.855-28.835h173.8c15.9,0,28.87,12.925,28.87,28.835
			V702.618z M671.933,783.523h217.264v19.465H671.933V783.523z M855.008,563.449h19.46c0-87.687-55.765-165.4-138.825-193.347
			l-6.205,18.44C804.538,413.829,855.008,484.126,855.008,563.449z M488.694,595.119l-19.162,3.33
			c11.438,66.115,54.752,122.325,115.877,150.405l8.11-17.68C538.239,705.758,499.044,654.898,488.694,595.119z"/>
	</g>
</g>
</svg>
