<?xml version="1.0" standalone="no"?><!DOCTYPE svg PUBLIC "-//W3C//DTD SVG 1.1//EN" "http://www.w3.org/Graphics/SVG/1.1/DTD/svg11.dtd"><svg width="200" height="200" viewBox="0 0 200 200" version="1.1" xmlns="http://www.w3.org/2000/svg" xmlns:xlink="http://www.w3.org/1999/xlink"><defs><style type="text/css"><![CDATA[
@font-face { font-family: ifont; src: url("//at.alicdn.com/t/font_1442373896_4754455.eot?#iefix") format("embedded-opentype"), url("//at.alicdn.com/t/font_1442373896_4754455.woff") format("woff"), url("//at.alicdn.com/t/font_1442373896_4754455.ttf") format("truetype"), url("//at.alicdn.com/t/font_1442373896_4754455.svg#ifont") format("svg"); }

]]></style></defs><g class="transform-group"><g transform="scale(0.1953125, 0.1953125)"><path d="M927.8 598.6 964 562.4 810.4 408.9 657.2 562.1 693.4 598.3 784.8 506.9 784.8 828.5 836 828.5 836 506.9ZM540.3 721.4 540.3 399.8 489.1 399.8 489.1 721.4 397.7 630.1 361.5 666.2 514.7 819.4 668.3 665.9 632.1 629.8ZM336.8 756l-50 0c-84.8 0-153.6-68.8-153.6-153.6 0-84.8 68.8-153.6 153.6-153.6 0.8 0 2.4 0 2.4 0l24.4 0.4c1.4 0.1 10 0.8 18.8-8.8 8.8-9.6 5.6-18.1 5.6-28.9 0-128.3 103.9-232.3 232-232.3 60.2 0 115.1 23 156.3 60.6 4.7 4.3 3.7 4.1 8.1 8.8 5 7.1 13.3 12.3 22.8 12.3 14.1 0 25.6-11.5 25.6-25.6 0-8.8-4.8-16.1-10.8-22.1-4.3-4.7-3.5-3.5-8.2-7.9C713.4 157.3 645.1 128 570 128c-151.7 0-275.6 119.5-282.9 269.6C173.7 397.6 82 489.3 82 602.4c0 113.1 91.7 204.8 204.8 204.8l50 0c14.1 0 25.6-11.5 25.6-25.6C362.4 767.5 350.9 756 336.8 756L336.8 756z" fill="#e6e6e6"></path></g></g></svg>