<?xml version="1.0" encoding="utf-8"?>
<!-- Generator: Adobe Illustrator 16.0.0, SVG Export Plug-In . SVG Version: 6.00 Build 0)  -->
<!DOCTYPE svg PUBLIC "-//W3C//DTD SVG 1.1//EN" "http://www.w3.org/Graphics/SVG/1.1/DTD/svg11.dtd">
<svg version="1.1" id="图层_1" xmlns="http://www.w3.org/2000/svg" xmlns:xlink="http://www.w3.org/1999/xlink" x="0px" y="0px"
	 width="234.375px" height="200px" viewBox="0 0 234.375 200" enable-background="new 0 0 234.375 200" xml:space="preserve">
<path fill="#BEC5D1" d="M220.576,92.848c-6.004-8.021-14.449-14.147-23.891-17.355c0.039-0.572,0.071-1.16,0.071-1.768
	c0-15.356-5.983-29.794-16.849-40.653c-10.864-10.858-25.311-16.838-40.674-16.838c-19.021,0-36.665,9.324-47.428,25.001
	c-2.83-0.65-5.651-0.979-8.401-0.979c-18.658,0-34.534,13.671-37.388,31.985c-10.664,2.645-20.314,8.773-27.277,17.347
	c-7.31,9.002-11.336,20.357-11.336,31.975c0,13.582,5.292,26.352,14.901,35.955c9.366,9.36,21.74,14.623,34.943,14.883v0.011h0.44
	v-12.763l-0.492-0.015c-9.963-0.278-19.284-4.36-26.247-11.493c-6.979-7.147-10.821-16.586-10.821-26.576
	c0-9.953,3.818-19.365,10.75-26.503c6.914-7.119,16.183-11.224,26.1-11.559l1.81-0.061l-0.319-2.253
	c-0.153-1.061-0.298-2.063-0.298-3.079c0-13.906,11.32-25.22,25.235-25.22c4.411,0,8.681,1.193,12.692,3.546l1.573,0.923
	l0.738-1.667c7.157-16.157,23.182-26.596,40.825-26.596c24.623,0,44.654,20.021,44.654,44.629c0,3.59-0.481,7.302-1.434,11.033
	l-0.473,1.856l1.908,0.167c9.053,0.792,17.444,4.918,23.627,11.619c6.219,6.742,9.645,15.509,9.645,24.686
	c0,19.547-15.467,35.545-34.809,36.427v12.86c12.672-0.417,24.525-5.533,33.533-14.537c9.406-9.401,14.588-21.901,14.588-35.196
	C230.477,111.801,227.053,101.5,220.576,92.848z"/>
<g>
	<g transform="scale(0.1953125, 0.1953125)">
		<path fill="#BEC5D1" d="M607.533,370.334c-176.65,0-319.854,125.122-319.854,279.474c0,154.345,143.205,279.469,319.854,279.469
			s319.854-125.125,319.854-279.469C927.388,495.456,784.183,370.334,607.533,370.334z M757.883,636.504H622.758v-118.05
			c41.555,0.87,81.825,5.345,120.245,12.985C751.733,565.004,756.868,600.189,757.883,636.504z M622.758,663.113h135.125
			c-1.035,37.075-6.345,72.985-15.435,107.195c-38.25,7.2-78.33,11.415-119.69,12.24V663.113L622.758,663.113z M897.253,636.504
			h-107.12c-0.89-33.385-5.125-65.89-12.34-97.16c38.395,9.84,74.63,22.895,108.05,38.71
			C892.138,596.734,896.048,616.304,897.253,636.504z M868.808,539.549c-31.275-12.74-64.495-23.265-99.285-31.285
			c-9.185-30.39-21.22-59.427-35.795-86.752C792.578,446.389,840.333,488.131,868.808,539.549z M689.643,406.632
			c18.11,29.2,33.04,60.857,44.315,94.405c-35.785-6.302-72.98-9.995-111.2-10.772v-93.31c0-0.097,0-0.185,0-0.272
			C645.868,397.727,668.268,401.134,689.643,406.632z M592.308,396.679c0,0.09,0,0.177,0,0.27v93.315
			c-39.267,0.8-77.45,4.672-114.13,11.297c10.537-33.142,24.495-64.44,41.385-93.357
			C542.689,401.781,567.074,397.819,592.308,396.679z M477.811,423.031c-13.552,26.958-24.762,55.565-33.342,85.477
			c-34.387,7.99-67.252,18.435-98.207,31.035C374.164,489.159,420.586,448.074,477.811,423.031z M329.232,578.054
			c33.235-15.72,69.247-28.73,107.407-38.55c-6.835,31.225-10.847,63.66-11.693,97H317.834
			C319.029,616.304,322.934,596.734,329.232,578.054z M317.834,663.113h107.112c0.87,34.255,5.073,67.56,12.257,99.555
			c-37.687-9.18-73.28-21.32-106.185-35.985C323.672,706.473,319.139,685.163,317.834,663.113z M348.002,763.158
			c30.535,11.72,62.902,21.45,96.747,28.915c8.537,29.56,19.655,57.84,33.062,84.51
			C421.759,852.063,376.074,812.128,348.002,763.158z M592.308,902.938c-25.24-1.145-49.622-5.105-72.745-11.53
			c-16.792-28.745-30.687-59.845-41.2-92.765c36.625,6.27,74.75,9.945,113.945,10.705V902.938L592.308,902.938z M592.308,782.548
			c-42.245-0.845-83.165-5.23-122.155-12.715c-8.56-34.06-13.575-69.81-14.555-106.72h136.71V782.548L592.308,782.548z
			 M455.599,636.504c0.953-36.13,5.797-71.16,14.032-104.575c39.147-7.93,80.242-12.58,122.677-13.475v118.05H455.599z
			 M622.758,902.938v-93.59c38.16-0.745,75.28-4.235,111.01-10.195c-11.24,33.33-26.12,64.8-44.125,93.83
			C668.268,898.488,645.878,901.893,622.758,902.938z M733.728,878.103c14.42-27.04,26.36-55.755,35.51-85.795
			c34.235-7.5,66.975-17.305,97.845-29.155C838.423,813.153,791.398,853.728,733.728,878.103z M884.053,726.673
			c-33.095,14.755-68.92,26.955-106.845,36.16c7.58-32.045,12.015-65.415,12.925-99.72h107.12
			C895.943,685.163,891.408,706.473,884.053,726.673z"/>
	</g>
</g>
</svg>
