<?xml version="1.0" encoding="utf-8"?>
<!-- Generator: Adobe Illustrator 16.0.0, SVG Export Plug-In . SVG Version: 6.00 Build 0)  -->
<!DOCTYPE svg PUBLIC "-//W3C//DTD SVG 1.1//EN" "http://www.w3.org/Graphics/SVG/1.1/DTD/svg11.dtd">
<svg version="1.1" id="图层_1" xmlns="http://www.w3.org/2000/svg" xmlns:xlink="http://www.w3.org/1999/xlink" x="0px" y="0px"
	 width="234.375px" height="200px" viewBox="0 0 234.375 200" enable-background="new 0 0 234.375 200" xml:space="preserve">
<path fill="#BEC5D1" d="M220.576,92.848c-6.004-8.021-14.449-14.147-23.891-17.355c0.039-0.572,0.071-1.16,0.071-1.768
	c0-15.356-5.983-29.794-16.849-40.653c-10.864-10.858-25.311-16.838-40.674-16.838c-19.021,0-36.665,9.324-47.428,25.001
	c-2.83-0.65-5.651-0.979-8.401-0.979c-18.658,0-34.534,13.671-37.388,31.985c-10.664,2.645-20.314,8.773-27.277,17.347
	c-7.31,9.002-11.336,20.357-11.336,31.975c0,13.582,5.292,26.352,14.901,35.955c9.366,9.36,21.74,14.623,34.943,14.883v0.011h0.44
	v-12.763l-0.492-0.015c-9.963-0.278-19.284-4.36-26.247-11.493c-6.979-7.147-10.821-16.586-10.821-26.576
	c0-9.953,3.818-19.365,10.75-26.503c6.914-7.119,16.183-11.224,26.1-11.559l1.81-0.061l-0.319-2.253
	c-0.153-1.061-0.298-2.063-0.298-3.079c0-13.906,11.32-25.22,25.235-25.22c4.411,0,8.681,1.193,12.692,3.546l1.573,0.923
	l0.738-1.667c7.157-16.157,23.182-26.596,40.825-26.596c24.623,0,44.654,20.021,44.654,44.629c0,3.59-0.481,7.302-1.434,11.033
	l-0.473,1.856l1.908,0.167c9.053,0.792,17.444,4.918,23.627,11.619c6.219,6.742,9.645,15.509,9.645,24.686
	c0,19.547-15.467,35.545-34.809,36.427v12.86c12.672-0.417,24.525-5.533,33.533-14.537c9.406-9.401,14.588-21.901,14.588-35.196
	C230.477,111.801,227.053,101.5,220.576,92.848z"/>
<g>
	<g transform="scale(0.1953125, 0.1953125)">
		<path fill="#BEC5D1" d="M369.334,620.109c-33.857,0-61.42-27.56-61.42-61.42s27.563-61.425,61.42-61.425
			c33.88,0,61.422,27.565,61.422,61.425C430.754,592.549,403.214,620.109,369.334,620.109z M369.334,542.029
			c-9.177,0-16.652,7.48-16.652,16.66c0,9.18,7.475,16.655,16.652,16.655c9.18,0,16.655-7.475,16.655-16.655
			C385.989,549.509,378.514,542.029,369.334,542.029z M369.334,768.003c-33.857,0-61.42-27.585-61.42-61.445
			c0-33.86,27.563-61.405,61.42-61.405c33.88,0,61.422,27.545,61.422,61.405C430.754,740.418,403.214,768.003,369.334,768.003z
			 M369.334,689.923c-9.177,0-16.652,7.455-16.652,16.635c0,9.2,7.475,16.675,16.652,16.675c9.18,0,16.655-7.475,16.655-16.675
			C385.989,697.378,378.514,689.923,369.334,689.923z M369.334,915.853c-33.857,0-61.42-27.59-61.42-61.425
			c0-33.88,27.563-61.42,61.42-61.42c33.88,0,61.422,27.54,61.422,61.42C430.754,888.263,403.214,915.853,369.334,915.853z
			 M369.334,837.773c-9.177,0-16.652,7.48-16.652,16.655c0,9.18,7.475,16.655,16.652,16.655c9.18,0,16.655-7.475,16.655-16.655
			C385.989,845.253,378.514,837.773,369.334,837.773z M927.928,620.109H458.691v-44.765h424.471v-33.315H458.691v-44.765h469.236
			V620.109z M927.928,768.003H458.691v-44.77h424.471v-33.31H458.691v-44.77h469.236V768.003z M927.928,915.853H458.691v-44.765
			h424.471v-33.315H458.691v-44.765h469.236V915.853z"/>
	</g>
</g>
</svg>
