<?xml version="1.0" encoding="utf-8"?>
<!-- Generator: Adobe Illustrator 16.0.0, SVG Export Plug-In . SVG Version: 6.00 Build 0)  -->
<!DOCTYPE svg PUBLIC "-//W3C//DTD SVG 1.1//EN" "http://www.w3.org/Graphics/SVG/1.1/DTD/svg11.dtd">
<svg version="1.1" id="图层_1" xmlns="http://www.w3.org/2000/svg" xmlns:xlink="http://www.w3.org/1999/xlink" x="0px" y="0px"
	 width="200px" height="200px" viewBox="0 0 200 200" enable-background="new 0 0 200 200" xml:space="preserve">
<path fill="#E6E6E6" d="M65.781,147.656h-9.766c-16.563,0-30-13.438-30-30s13.438-30,30-30c0.156,0,0.469,0,0.469,0l4.766,0.078
	c0.273,0.02,1.953,0.156,3.672-1.719s1.094-3.535,1.094-5.645C66.016,55.313,86.309,35,111.328,35
	c11.758,0,22.48,4.492,30.527,11.836c0.918,0.84,0.723,0.801,1.582,1.719c0.977,1.387,2.598,2.402,4.453,2.402c2.754,0,5-2.246,5-5
	c0-1.719-0.938-3.145-2.109-4.316c-0.84-0.918-0.684-0.684-1.602-1.543C139.336,30.723,125.996,25,111.328,25
	C81.699,25,57.5,48.34,56.074,77.656c-22.148,0-40.059,17.91-40.059,40s17.91,40,40,40h9.766c2.754,0,5-2.246,5-5
	S68.535,147.656,65.781,147.656L65.781,147.656z"/>
<g>
	<g transform="scale(0.1953125, 0.1953125)">
		<path fill="#E6E6E6" d="M912.398,610.494l-23.27-26.49c-6.18-6.165-14.35-9.23-22.51-9.185c-8.2,0.045-16.4,3.205-22.68,9.455
			L664.338,731.268v69.665h68.87l178.98-145.21C924.648,643.224,924.748,622.854,912.398,610.494z M721.748,768.603h-25.1v-25.89
			l169.719-135.925c0-0.015,0-0.045,0.03-0.045l0.03-0.035l22.99,26.765L721.748,768.603z M503.549,382.877h225.109v128.632h96.47
			v32.16h32.16v-64.317l-128.63-128.632H503.549c-17.682,0-32.16,14.478-32.16,32.157v385.901c0,17.68,14.478,32.16,32.16,32.16
			h128.63v-32.16h-128.63V382.877z M762.818,417.044l62.97,62.985h-62.97V417.044z"/>
	</g>
</g>
</svg>
