<?xml version="1.0" encoding="utf-8"?>
<!-- Generator: Adobe Illustrator 16.0.0, SVG Export Plug-In . SVG Version: 6.00 Build 0)  -->
<!DOCTYPE svg PUBLIC "-//W3C//DTD SVG 1.1//EN" "http://www.w3.org/Graphics/SVG/1.1/DTD/svg11.dtd">
<svg version="1.1" id="图层_1" xmlns="http://www.w3.org/2000/svg" xmlns:xlink="http://www.w3.org/1999/xlink" x="0px" y="0px"
	 width="234.375px" height="200px" viewBox="0 0 234.375 200" enable-background="new 0 0 234.375 200" xml:space="preserve">
<path fill="#BEC5D1" d="M220.576,92.848c-6.004-8.021-14.449-14.147-23.891-17.355c0.039-0.572,0.071-1.16,0.071-1.768
	c0-15.356-5.983-29.794-16.849-40.653c-10.864-10.858-25.311-16.838-40.674-16.838c-19.021,0-36.665,9.324-47.428,25.001
	c-2.83-0.65-5.651-0.979-8.401-0.979c-18.658,0-34.534,13.671-37.388,31.985c-10.664,2.645-20.314,8.773-27.277,17.347
	c-7.31,9.002-11.336,20.357-11.336,31.975c0,13.582,5.292,26.352,14.901,35.955c9.366,9.36,21.74,14.623,34.943,14.883v0.011h0.44
	v-12.763l-0.492-0.015c-9.963-0.278-19.284-4.36-26.247-11.493c-6.979-7.147-10.821-16.586-10.821-26.576
	c0-9.953,3.818-19.365,10.75-26.503c6.914-7.119,16.183-11.224,26.1-11.559l1.81-0.061l-0.319-2.253
	c-0.153-1.061-0.298-2.063-0.298-3.079c0-13.906,11.32-25.22,25.235-25.22c4.411,0,8.681,1.193,12.692,3.546l1.573,0.923
	l0.738-1.667c7.157-16.157,23.182-26.596,40.825-26.596c24.623,0,44.654,20.021,44.654,44.629c0,3.59-0.481,7.302-1.434,11.033
	l-0.473,1.856l1.908,0.167c9.053,0.792,17.444,4.918,23.627,11.619c6.219,6.742,9.645,15.509,9.645,24.686
	c0,19.547-15.467,35.545-34.809,36.427v12.86c12.672-0.417,24.525-5.533,33.533-14.537c9.406-9.401,14.588-21.901,14.588-35.196
	C230.477,111.801,227.053,101.5,220.576,92.848z"/>
<g>
	<g transform="scale(0.1953125, 0.1953125)">
		<path fill="#BEC5D1" d="M483.391,907.813c0,19.055,15.447,34.505,34.502,34.505c19.05,0,34.497-15.45,34.497-34.505l0,0
			c0-19.045-15.448-34.49-34.497-34.49C498.839,873.323,483.391,888.768,483.391,907.813z M772.378,907.813
			c0,19.06,15.45,34.505,34.51,34.505c19.05,0,34.49-15.445,34.49-34.505c0-19.045-15.44-34.49-34.49-34.49
			C787.828,873.323,772.378,888.768,772.378,907.813z M834.363,815.083c-0.03,0-0.05,0-0.08,0l-330.839,1.215l-10.532-1.135
			c-3.387-1.445-18.312-9.82-23.815-46.9l-42.46-319.127c0.005-0.51-0.01-1.025-0.042-1.548
			c-2.453-34.175-16.777-53.557-28.362-63.792c-13.013-11.498-25.72-14.532-28.135-15.025c-1.302-0.268-2.63-0.403-3.958-0.41
			l-42.185-0.26c-0.04,0-0.08,0-0.125,0c-11.247,0-20.402,9.085-20.472,20.35c-0.07,11.31,9.042,20.53,20.35,20.6l39.247,0.24
			c4.435,1.708,16.16,8.078,20.957,28.73c0.028,0.512,0.073,1.022,0.14,1.538l44.47,334.249c0.012,0.1,0.027,0.2,0.042,0.295
			c10.427,70.695,51.775,80.45,56.455,81.335c0.522,0.1,1.052,0.175,1.59,0.23l13.58,1.465c0.73,0.08,1.463,0.125,2.195,0.125
			c0.025,0,0.047,0,0.073,0l331.977-1.225c11.31-0.045,20.445-9.245,20.4-20.555C854.793,824.198,845.633,815.083,834.363,815.083z
			 M893.938,501.914c5.375-23.41,2.72-42.895-7.935-57.975c-15.315-21.68-40.47-24.032-43.295-24.23
			c-0.49-0.032-0.995-0.052-1.485-0.05l-347.862,1.113c-11.305,0.035-20.445,9.23-20.41,20.54
			c0.037,11.307,9.228,20.462,20.542,20.407l346.714-1.103c1.635,0.28,8.69,1.772,12.35,6.952c2.36,3.34,3.36,8.377,3.02,14.683
			c-0.19,0.708-0.33,1.43-0.44,2.165l-1.455,9.78c-0.205,0.833-0.425,1.68-0.665,2.538c-0.63,2.248-0.84,4.515-0.705,6.72
			l-24.76,166.745c-0.29,1.055-0.495,2.135-0.615,3.255c-3.31,31.24-17.135,35.15-19.3,35.57l-269.847,24.25
			c-11.262,1.01-19.57,10.96-18.557,22.23c0.952,10.635,9.887,18.635,20.367,18.635c0.612,0,1.232-0.025,1.857-0.075l270.124-24.285
			c3.27-0.285,15.33-2.01,27.715-11.96c7.215-5.795,15.655-15.375,21.61-30.82c2.04-2.665,3.445-5.865,3.975-9.415L893.938,501.914z
			"/>
	</g>
</g>
</svg>
