<?xml version="1.0" standalone="no"?><!DOCTYPE svg PUBLIC "-//W3C//DTD SVG 1.1//EN" "http://www.w3.org/Graphics/SVG/1.1/DTD/svg11.dtd"><svg width="200" height="200" viewBox="0 0 200 200" version="1.1" xmlns="http://www.w3.org/2000/svg" xmlns:xlink="http://www.w3.org/1999/xlink"><defs><style type="text/css"><![CDATA[
@font-face { font-family: ifont; src: url("//at.alicdn.com/t/font_1442373896_4754455.eot?#iefix") format("embedded-opentype"), url("//at.alicdn.com/t/font_1442373896_4754455.woff") format("woff"), url("//at.alicdn.com/t/font_1442373896_4754455.ttf") format("truetype"), url("//at.alicdn.com/t/font_1442373896_4754455.svg#ifont") format("svg"); }

]]></style></defs><g class="transform-group"><g transform="scale(0.1953125, 0.1953125)"><path d="M187.630355 318.826396c-18.773576-92.333942-31.112602-180.623777-22.75833-255.149121l2.272763 0 0-63.677275L1.044796 0l0 63.677275 112.424512 0c-4.326539 80.473823 7.061836 171.003676 26.154683 264.910439 24.478508 120.390951 66.287729 227.41343 116.692722 309.453934l0.097214 0 77.180823 0 498.781954 0L832.376705 574.364373 285.340747 574.364373C243.085364 507.391029 207.961402 418.814668 187.630355 318.826396zM351.432001 702.713576c-53.042053 0-96.04138 42.999326-96.04138 96.04138s42.999326 96.04138 96.04138 96.04138 96.04138-42.999326 96.04138-96.04138S404.474055 702.713576 351.432001 702.713576zM351.432001 849.870124c-28.229948 0-51.115168-22.88522-51.115168-51.115168s22.88522-51.115168 51.115168-51.115168 51.115168 22.88522 51.115168 51.115168S379.661949 849.870124 351.432001 849.870124zM734.148519 702.713576c-53.042053 0-96.04138 42.999326-96.04138 96.04138s42.999326 96.04138 96.04138 96.04138 96.04138-42.999326 96.04138-96.04138S787.190573 702.713576 734.148519 702.713576zM734.148519 849.870124c-28.229948 0-51.115168-22.88522-51.115168-51.115168s22.88522-51.115168 51.115168-51.115168 51.115168 22.88522 51.115168 51.115168S762.378467 849.870124 734.148519 849.870124zM320.283584 383.623167l575.963801 0 0 63.677275-575.963801 0 0-63.677275ZM320.283584 192.239326 961.139324 192.239326 961.139324 255.916601 320.283584 255.916601 320.283584 192.239326Z" fill="#fff"></path></g></g></svg>