<?xml version="1.0" encoding="utf-8"?>
<!-- Generator: Adobe Illustrator 16.0.0, SVG Export Plug-In . SVG Version: 6.00 Build 0)  -->
<!DOCTYPE svg PUBLIC "-//W3C//DTD SVG 1.1//EN" "http://www.w3.org/Graphics/SVG/1.1/DTD/svg11.dtd">
<svg version="1.1" id="图层_1" xmlns="http://www.w3.org/2000/svg" xmlns:xlink="http://www.w3.org/1999/xlink" x="0px" y="0px"
	 width="234.375px" height="200px" viewBox="0 0 234.375 200" enable-background="new 0 0 234.375 200" xml:space="preserve">
<g>
	<g transform="scale(0.1953125, 0.1953125)">
		<path fill="#BEC5D1" d="M925.058,918.588c68.11,0,132.135-26.51,180.289-74.64c48.16-48.135,74.685-112.135,74.685-180.21
			c0-55.48-17.525-108.22-50.685-152.517c-30.74-41.065-73.98-72.432-122.315-88.86c0.195-2.927,0.365-5.94,0.365-9.052
			c0-78.625-30.64-152.545-86.265-208.145c-55.625-55.595-129.585-86.212-208.25-86.212c-97.385,0-187.719,47.74-242.829,128.005
			c-14.49-3.328-28.932-5.012-43.015-5.012c-95.53,0-176.812,69.997-191.425,163.764c-54.597,13.538-104.01,44.917-139.66,88.815
			c-37.432,46.095-58.047,104.24-58.047,163.719c0,69.54,27.095,134.915,76.292,184.085c47.955,47.93,111.31,74.87,178.91,76.205
			v0.05 M570.984,918.003c0.023-70.8-0.36-282.244-3.825-308.779c-2.432-18.605-19.88-35.99-21.86-37.91l-0.98-0.95l-42.78-20.435
			l-0.797-0.33c-1.257-0.47-4.982-2.42-5.582-5.215c-0.29-1.35-0.443-6.54,9.747-16.565
			c11.482-11.285,100.452-102.255,104.232-106.122l0.25-0.268c3.04-3.392,6.265-5.042,9.87-5.042c6.055,0,12.315,4.528,14.29,6.333
			c3.465,3.51,72.79,73.755,105.025,105.99c9.745,9.745,9.895,14.945,9.505,16.73c-0.67,3.06-4.67,5.21-6.05,5.745
			c-4.195,1.305-33.29,10.56-45.885,20.425c-9.6,7.53-17.92,30.895-19.49,35.5l-0.445,1.315l0.41,309.579 M925.268,852.748
			c-0.26-0.02-0.52-0.03-0.785-0.03h-8.335v1.015h-187.2l0.26-215.774c0.17-6.69,3-26.23,13.555-29.84
			c8.365-2.86,43.955-13.54,44.315-13.65l0.725-0.22l0.675-0.345c1.01-0.515,24.785-12.92,28.46-36.22
			c2.405-15.285-4.27-30.93-19.855-46.512c-53.195-53.198-139.485-142.365-140.35-143.257l-0.255-0.255
			c-0.71-0.667-17.485-16.343-38.275-16.343c-12.175,0-22.982,5.15-32.127,15.308c-4.285,4.422-123.635,127.577-141.82,145.457
			c-14.902,14.657-21.102,29.452-18.43,43.977c4.508,24.525,33.167,37.35,34.385,37.885l37.37,13.925l0.135,0.255l0.885,0.08
			c1.517,0.685,11.057,6.035,13.552,32.49c2.83,30.02,2.792,153.065,2.59,213.039H300.942v-0.335l-8.098-0.23
			c-51.01-1.43-98.735-22.33-134.382-58.85c-35.73-36.595-55.405-84.92-55.405-136.07c0-50.96,19.547-99.145,55.042-135.695
			c35.4-36.447,82.857-57.465,133.63-59.18l9.265-0.313l-1.635-11.538c-0.785-5.43-1.525-10.56-1.525-15.762
			c0-71.2,57.96-129.127,129.205-129.127c22.582,0,44.447,6.11,64.985,18.155l8.052,4.725l3.78-8.535
			c36.642-82.722,118.692-136.172,209.027-136.172c126.065,0,228.63,102.505,228.63,228.5c0,18.382-2.47,37.387-7.34,56.49
			l-2.42,9.502l9.77,0.853c46.355,4.055,89.32,25.18,120.97,59.487c31.845,34.52,49.38,79.405,49.38,126.39
			c0,102.89-83.69,186.604-186.609,186.719H925.268z M570.984,918.003h105.76v1.205h-105.76V918.003z"/>
	</g>
</g>
</svg>
