<?xml version="1.0" encoding="utf-8"?>
<!-- Generator: Adobe Illustrator 16.0.0, SVG Export Plug-In . SVG Version: 6.00 Build 0)  -->
<!DOCTYPE svg PUBLIC "-//W3C//DTD SVG 1.1//EN" "http://www.w3.org/Graphics/SVG/1.1/DTD/svg11.dtd">
<svg version="1.1" id="图层_1" xmlns="http://www.w3.org/2000/svg" xmlns:xlink="http://www.w3.org/1999/xlink" x="0px" y="0px"
	 width="200px" height="200px" viewBox="0 0 200 200" enable-background="new 0 0 200 200" xml:space="preserve">
<path fill="#E6E6E6" d="M65.781,147.656h-9.766c-16.563,0-30-13.438-30-30s13.438-30,30-30c0.156,0,0.469,0,0.469,0l4.766,0.078
	c0.273,0.02,1.953,0.156,3.672-1.719s1.094-3.535,1.094-5.645C66.016,55.313,86.309,35,111.328,35
	c11.758,0,22.48,4.492,30.527,11.836c0.918,0.84,0.723,0.801,1.582,1.719c0.977,1.387,2.598,2.402,4.453,2.402c2.754,0,5-2.246,5-5
	c0-1.719-0.938-3.145-2.109-4.316c-0.84-0.918-0.684-0.684-1.602-1.543C139.336,30.723,125.996,25,111.328,25
	C81.699,25,57.5,48.34,56.074,77.656c-22.148,0-40.059,17.91-40.059,40s17.91,40,40,40h9.766c2.754,0,5-2.246,5-5
	S68.535,147.656,65.781,147.656L65.781,147.656z"/>
<g>
	<g transform="scale(0.1953125, 0.1953125)">
		<path fill="#E6E6E6" d="M724.243,358.264c-69.74,0-126.465,56.725-126.465,126.46c0,48.185,27.09,90.155,66.84,111.48
			c-82.775,25.53-143.095,102.73-143.095,193.755c0,6.68,5.4,12.08,12.07,12.08c6.67,0,12.08-5.4,12.08-12.08
			c0-98.445,80.11-178.55,177.675-178.6c1.28,0.14,2.54,0.05,3.74-0.22c68.415-1.525,123.6-57.645,123.6-126.415
			C850.688,414.989,793.963,358.264,724.243,358.264z M724.243,587.019c-56.42,0-102.315-45.89-102.315-102.295
			c0-56.437,45.895-102.31,102.315-102.31c56.41,0,102.295,45.883,102.295,102.31C826.538,541.129,780.653,587.019,724.243,587.019z
			 M867.773,646.849c-4.71-4.725-12.345-4.725-17.075-0.02c-4.715,4.705-4.725,12.35-0.015,17.08
			c33.615,33.7,52.125,78.49,52.125,126.05c0,6.68,5.4,12.08,12.08,12.08c6.67,0,12.07-5.4,12.07-12.08
			C926.958,735.958,905.948,685.118,867.773,646.849z M596.513,590.119c0-0.015-0.005-0.04-0.005-0.05
			c0-0.015,0.005-0.04,0.005-0.055c0-6.67-5.405-12.07-12.075-12.07c-43.815,0-79.45-38.075-79.45-84.872
			c0-46.8,35.635-84.867,79.45-84.867c6.67,0,12.075-5.417,12.075-12.077c0-6.673-5.405-12.078-12.075-12.078
			c-57.125,0-103.595,48.915-103.595,109.022c0,39.997,20.58,75.017,51.17,94.002c-65.14,23.14-112.175,88.19-112.175,164.605
			c0,6.68,5.397,12.075,12.073,12.075c6.675,0,12.072-5.395,12.072-12.075c0-82.44,63-149.485,140.455-149.485
			C591.108,602.194,596.513,596.789,596.513,590.119z"/>
	</g>
</g>
</svg>
