<?xml version="1.0" encoding="utf-8"?>
<!-- Generator: Adobe Illustrator 16.0.0, SVG Export Plug-In . SVG Version: 6.00 Build 0)  -->
<!DOCTYPE svg PUBLIC "-//W3C//DTD SVG 1.1//EN" "http://www.w3.org/Graphics/SVG/1.1/DTD/svg11.dtd">
<svg version="1.1" id="图层_1" xmlns="http://www.w3.org/2000/svg" xmlns:xlink="http://www.w3.org/1999/xlink" x="0px" y="0px"
	 width="234.375px" height="200px" viewBox="0 0 234.375 200" enable-background="new 0 0 234.375 200" xml:space="preserve">
<path fill="#BEC5D1" d="M220.576,92.848c-6.004-8.021-14.449-14.147-23.891-17.355c0.039-0.572,0.071-1.16,0.071-1.768
	c0-15.356-5.983-29.794-16.849-40.653c-10.864-10.858-25.311-16.838-40.674-16.838c-19.021,0-36.665,9.324-47.428,25.001
	c-2.83-0.65-5.651-0.979-8.401-0.979c-18.658,0-34.534,13.671-37.388,31.985c-10.664,2.645-20.314,8.773-27.277,17.347
	c-7.31,9.002-11.336,20.357-11.336,31.975c0,13.582,5.292,26.352,14.901,35.955c9.366,9.36,21.74,14.623,34.943,14.883v0.011h0.44
	v-12.763l-0.492-0.015c-9.963-0.278-19.284-4.36-26.247-11.493c-6.979-7.147-10.821-16.586-10.821-26.576
	c0-9.953,3.818-19.365,10.75-26.503c6.914-7.119,16.183-11.224,26.1-11.559l1.81-0.061l-0.319-2.253
	c-0.153-1.061-0.298-2.063-0.298-3.079c0-13.906,11.32-25.22,25.235-25.22c4.411,0,8.681,1.193,12.692,3.546l1.573,0.923
	l0.738-1.667c7.157-16.157,23.182-26.596,40.825-26.596c24.623,0,44.654,20.021,44.654,44.629c0,3.59-0.481,7.302-1.434,11.033
	l-0.473,1.856l1.908,0.167c9.053,0.792,17.444,4.918,23.627,11.619c6.219,6.742,9.645,15.509,9.645,24.686
	c0,19.547-15.467,35.545-34.809,36.427v12.86c12.672-0.417,24.525-5.533,33.533-14.537c9.406-9.401,14.588-21.901,14.588-35.196
	C230.477,111.801,227.053,101.5,220.576,92.848z"/>
<g>
	<g transform="scale(0.1953125, 0.1953125)">
		<path fill="#BEC5D1" d="M325.867,434.994c0,10.838,9.02,20.218,20.152,20.218h384.274v-40.442H346.019
			C334.762,414.769,325.867,423.822,325.867,434.994z M871.918,414.769h-60.735v-60.755c0-11.44-9.05-20.132-20.22-20.132
			c-10.84,0-20.225,9.012-20.225,20.132v60.755v40.442v60.757c0,11.445,9.06,20.125,20.225,20.125c10.84,0,20.22-9.005,20.22-20.125
			v-60.757h60.735c11.26,0,20.15-9.047,20.15-20.218C892.068,424.149,883.053,414.769,871.918,414.769z M871.918,616.984H487.639
			v40.445h384.279c11.135,0,20.15-9.375,20.15-20.22C892.068,626.044,883.178,616.984,871.918,616.984z M426.974,536.094
			c-11.17,0-20.22,8.695-20.22,20.135v60.755h-60.735c-11.13,0-20.152,9.38-20.152,20.225c0,11.165,8.895,20.22,20.152,20.22h60.735
			v60.76c0,11.115,9.38,20.13,20.22,20.13c11.17,0,20.22-8.69,20.22-20.13v-60.76v-40.445v-60.755
			C447.194,545.114,437.816,536.094,426.974,536.094z M325.867,839.418c0,11.175,8.892,20.23,20.152,20.23h182.062v-40.445H346.019
			C334.887,819.203,325.867,828.583,325.867,839.418z M871.918,819.203H608.969v-60.76c0-11.115-9.38-20.125-20.225-20.125
			c-11.165,0-20.215,8.68-20.215,20.125v60.76v40.445v60.755c0,11.12,9.38,20.13,20.215,20.13c11.175,0,20.225-8.695,20.225-20.13
			v-60.755h262.949c11.135,0,20.15-9.385,20.15-20.23C892.068,828.253,883.178,819.203,871.918,819.203z"/>
	</g>
</g>
</svg>
